# xmcd
#
# Track frame offsets:
#	150
#	19832
#	36339
#	50183
#
# Disc length: 939 seconds
#
# Revision: 0
# Processed by: cddbd v1.5.2PL0 Copyright (c) Steve Scherf et al.
# Submitted via: dBpowerAMP V4.0
#
DISCID=3303a904
DTITLE=Gertrudes, the - the Gertrudes EP
DYEAR=2008
DGENRE=
TTITLE0=Lonely Days
TTITLE1=Winter cold
TTITLE2=The Blackbird and the cedar
TTITLE3=the Gertrudes
EXTD=
EXTT0=
EXTT1=
EXTT2=
EXTT3=
PLAYORDER=
